<?xml version="1.0" encoding="utf-8"?>
<!-- Generator: Adobe Illustrator 13.0.1, SVG Export Plug-In  -->
<!DOCTYPE svg PUBLIC "-//W3C//DTD SVG 1.1//EN" "http://www.w3.org/Graphics/SVG/1.1/DTD/svg11.dtd" [
	<!ENTITY ns_flows "http://ns.adobe.com/Flows/1.0/">
]>
<svg version="1.1"
	 xmlns="http://www.w3.org/2000/svg" xmlns:xlink="http://www.w3.org/1999/xlink" xmlns:a="http://ns.adobe.com/AdobeSVGViewerExtensions/3.0/"
	 x="0px" y="0px" width="460px" height="48px" viewBox="131.5 315.5 460 48" enable-background="new 131.5 315.5 460 48"
	 xml:space="preserve">
<defs>
</defs>
<rect display="none" fill="#563939" width="698" height="608"/>
<path fill="#FFFFFF" d="M255.925,341.387c-0.18,3.171-2.896,5.595-6.067,5.415l-81.369-4.622c-3.171-0.18-5.595-2.896-5.415-6.066
	l0,0c0.18-3.171,2.896-5.595,6.067-5.415l81.369,4.622C253.681,335.5,256.105,338.216,255.925,341.387L255.925,341.387z"/>
<path fill="#FFFFFF" d="M407.89,334.54c0.219,3.168-2.172,5.915-5.34,6.134l-81.306,5.625c-3.168,0.22-5.914-2.171-6.133-5.339l0,0
	c-0.219-3.168,2.171-5.914,5.339-6.133l81.306-5.626C404.925,328.981,407.67,331.372,407.89,334.54L407.89,334.54z"/>
<path fill="#FFFFFF" d="M560.997,338.682c0.038,3.176-2.504,5.78-5.68,5.82l-81.493,0.995c-3.177,0.04-5.782-2.504-5.821-5.679l0,0
	c-0.038-3.176,2.504-5.781,5.68-5.82l81.494-0.996C558.353,332.963,560.958,335.507,560.997,338.682L560.997,338.682z"/>
<path fill="#FFFFFF" d="M161.08,316.701h-54.648c-11.694,0-21.176,9.48-21.176,21.176c0,11.695,9.481,21.176,21.176,21.176h54.648
	c11.694,0,21.176-9.481,21.176-21.176C182.256,326.182,172.774,316.701,161.08,316.701z M161.256,349.201h-55
	c-6.352,0-11.5-5.148-11.5-11.5c0-6.351,5.148-11.5,11.5-11.5h55c6.352,0,11.5,5.149,11.5,11.5
	C172.756,344.053,167.607,349.201,161.256,349.201z"/>
<path fill="#FFFFFF" d="M617.08,316.701h-54.648c-11.694,0-21.176,9.48-21.176,21.176c0,11.695,9.481,21.176,21.176,21.176h54.648
	c11.694,0,21.176-9.481,21.176-21.176C638.256,326.182,628.774,316.701,617.08,316.701z M617.256,349.201h-55
	c-6.352,0-11.5-5.148-11.5-11.5c0-6.351,5.148-11.5,11.5-11.5h55c6.352,0,11.5,5.149,11.5,11.5
	C628.756,344.053,623.607,349.201,617.256,349.201z"/>
<path fill="#FFFFFF" d="M314.085,317.977l-54.591,2.493c-11.682,0.534-20.721,10.437-20.188,22.12
	c0.534,11.683,10.438,20.722,22.12,20.188l54.591-2.493c11.683-0.534,20.721-10.438,20.188-22.121
	C335.672,326.481,325.768,317.443,314.085,317.977z M315.744,350.435l-54.942,2.51c-6.345,0.289-11.723-4.619-12.013-10.964
	c-0.29-6.344,4.618-11.723,10.963-12.013l54.942-2.509c6.345-0.29,11.723,4.619,12.013,10.963
	C326.997,344.767,322.089,350.145,315.744,350.435z"/>
<path fill="#FFFFFF" d="M468.587,318.568l-54.583-2.683c-11.68-0.574-21.615,8.43-22.189,20.111s8.431,21.616,20.111,22.191
	l54.582,2.682c11.681,0.574,21.615-8.43,22.189-20.111S480.267,319.142,468.587,318.568z M467.167,351.037l-54.934-2.699
	c-6.345-0.312-11.233-5.707-10.921-12.051c0.311-6.343,5.705-11.233,12.05-10.922l54.934,2.7c6.344,0.312,11.234,5.708,10.922,12.05
	C478.906,346.459,473.511,351.349,467.167,351.037z"/>
</svg>
