<?xml version="1.0" encoding="utf-8"?>
<!-- Generator: Adobe Illustrator 13.0.1, SVG Export Plug-In  -->
<!DOCTYPE svg PUBLIC "-//W3C//DTD SVG 1.1//EN" "http://www.w3.org/Graphics/SVG/1.1/DTD/svg11.dtd" [
	<!ENTITY ns_flows "http://ns.adobe.com/Flows/1.0/">
]>
<svg version="1.1"
	 xmlns="http://www.w3.org/2000/svg" xmlns:xlink="http://www.w3.org/1999/xlink" xmlns:a="http://ns.adobe.com/AdobeSVGViewerExtensions/3.0/"
	 x="0px" y="0px" width="110px" height="315px" viewBox="0 0 110 315" enable-background="new 0 0 110 315" xml:space="preserve">
<defs>
</defs>
<path fill="#3B5C9F" d="M518.667,4V0H0v4h0v56h0v4h0v56h0v4h0v56h0v4h0v56h0v4h0v56h0v4h0v11.4h2V304h108.083v11.4h2V304h406.583v-4
	H112.083v-56h406.583v-4H112.083v-56h406.583v-4H112.083v-56h406.583v-4H112.083V64h406.583v-4H112.083V4H518.667z M110.083,300H2
	v-56h108.083V300z M110.083,240H2v-56h108.083V240z M110.083,180H2v-56h108.083V180z M110.083,120H2V64h108.083V120z M110.083,60H2
	V4h108.083V60z"/>
</svg>
