<?xml version="1.0" encoding="utf-8"?>
<!-- Generator: Adobe Illustrator 13.0.1, SVG Export Plug-In  -->
<!DOCTYPE svg PUBLIC "-//W3C//DTD SVG 1.1//EN" "http://www.w3.org/Graphics/SVG/1.1/DTD/svg11.dtd" [
	<!ENTITY ns_flows "http://ns.adobe.com/Flows/1.0/">
]>
<svg version="1.1"
	 xmlns="http://www.w3.org/2000/svg" xmlns:xlink="http://www.w3.org/1999/xlink" xmlns:a="http://ns.adobe.com/AdobeSVGViewerExtensions/3.0/"
	 x="0px" y="0px" width="50px" height="50px" viewBox="-0.646 -10.167 50 50" enable-background="new -0.646 -10.167 50 50"
	 xml:space="preserve">
<defs>
</defs>
<path fill="#FFFFFF" d="M40.297,13.309c1.07,0,2.082-0.253,2.979-0.703l6.079,1.766c0,0-3.604-4.159-3.423-4.178
	c0.646-1.024,1.02-2.239,1.02-3.54C46.951,2.979,43.972,0,40.297,0H6.654C2.979,0,0,2.979,0,6.654s2.979,6.655,6.654,6.655H40.297z
	 M38.769,17.492H12.266c-3.675,0-6.654,2.979-6.654,6.654v0.185c0,1.302,0.374,2.516,1.019,3.539
	c0.182,0.019-3.422,4.179-3.422,4.179l6.08-1.766c0.896,0.449,1.908,0.702,2.978,0.702h26.502c3.675,0,6.654-2.979,6.654-6.654
	v-0.185C45.423,20.47,42.443,17.492,38.769,17.492z"/>
</svg>
