<?xml version="1.0" encoding="utf-8"?>
<!-- Generator: Adobe Illustrator 13.0.1, SVG Export Plug-In  -->
<!DOCTYPE svg PUBLIC "-//W3C//DTD SVG 1.1//EN" "http://www.w3.org/Graphics/SVG/1.1/DTD/svg11.dtd" [
	<!ENTITY ns_flows "http://ns.adobe.com/Flows/1.0/">
]>
<svg version="1.1"
	 xmlns="http://www.w3.org/2000/svg" xmlns:xlink="http://www.w3.org/1999/xlink" xmlns:a="http://ns.adobe.com/AdobeSVGViewerExtensions/3.0/"
	 x="0px" y="0px" width="273px" height="273px" viewBox="0 0 273 273" enable-background="new 0 0 273 273" xml:space="preserve">
<defs>
</defs>
<path fill="#FFCC00" d="M148.637,36.062l-11.729-8.054l-11.713,8.079l4.035-13.645L117.926,13.8l14.224-0.379L136.877,0
	l4.756,13.411l14.224,0.348l-11.284,8.667L148.637,36.062z"/>
<path fill="#FFCC00" d="M148.637,272.942l-11.729-8.055l-11.713,8.079l4.035-13.645l-11.304-8.642l14.224-0.38l4.728-13.422
	l4.756,13.411l14.224,0.349l-11.284,8.667L148.637,272.942z"/>
<path fill="#FFCC00" d="M207.088,52.981l-11.73-8.054l-11.712,8.08l4.035-13.645l-11.304-8.642l14.224-0.379l4.728-13.421
	l4.756,13.411l14.224,0.348l-11.284,8.667L207.088,52.981z"/>
<path fill="#FFCC00" d="M88.648,52.981l-11.73-8.054l-11.712,8.08l4.035-13.645L57.937,30.72l14.224-0.379l4.727-13.421
	l4.756,13.411l14.224,0.348l-11.284,8.667L88.648,52.981z"/>
<path fill="#FFCC00" d="M45.579,95.539l-11.73-8.054l-11.712,8.079l4.035-13.645l-11.304-8.643l14.224-0.379l4.728-13.421
	l4.756,13.411l14.224,0.348l-11.284,8.667L45.579,95.539z"/>
<path fill="#FFCC00" d="M250.156,95.539l-11.729-8.054l-11.714,8.079l4.035-13.645l-11.302-8.643l14.222-0.379l4.729-13.421
	l4.756,13.411l14.223,0.348l-11.284,8.667L250.156,95.539z"/>
<path fill="#FFCC00" d="M266.053,154.501l-11.73-8.053l-11.712,8.079l4.035-13.645l-11.304-8.643l14.224-0.379l4.727-13.421
	l4.756,13.411l14.224,0.348l-11.283,8.667L266.053,154.501z"/>
<path fill="#FFCC00" d="M30.711,154.501l-11.73-8.053l-11.712,8.079l4.035-13.645L0,132.24l14.224-0.379l4.727-13.421l4.756,13.411
	l14.224,0.348l-11.284,8.667L30.711,154.501z"/>
<path fill="#FFCC00" d="M46.091,213.466l-11.73-8.053l-11.712,8.079l4.035-13.646l-11.304-8.642l14.224-0.379l4.727-13.421
	l4.756,13.411l14.224,0.348l-11.284,8.668L46.091,213.466z"/>
<path fill="#FFCC00" d="M250.669,213.466l-11.729-8.053l-11.713,8.079l4.035-13.646l-11.304-8.642l14.224-0.379l4.728-13.421
	l4.756,13.411l14.224,0.348l-11.284,8.668L250.669,213.466z"/>
<path fill="#FFCC00" d="M89.161,256.535l-11.73-8.054l-11.712,8.079l4.035-13.646l-11.304-8.642l14.224-0.38l4.727-13.421
	l4.756,13.411l14.224,0.349l-11.284,8.667L89.161,256.535z"/>
<path fill="#FFCC00" d="M207.601,256.535l-11.729-8.054l-11.713,8.079l4.034-13.646l-11.302-8.642l14.222-0.38l4.729-13.421
	l4.756,13.411l14.222,0.349l-11.284,8.667L207.601,256.535z"/>
</svg>
