<?xml version="1.0" encoding="utf-8"?>
<!-- Generator: Adobe Illustrator 13.0.1, SVG Export Plug-In  -->
<!DOCTYPE svg PUBLIC "-//W3C//DTD SVG 1.1//EN" "http://www.w3.org/Graphics/SVG/1.1/DTD/svg11.dtd" [
	<!ENTITY ns_flows "http://ns.adobe.com/Flows/1.0/">
]>
<svg version="1.1"
	 xmlns="http://www.w3.org/2000/svg" xmlns:xlink="http://www.w3.org/1999/xlink" xmlns:a="http://ns.adobe.com/AdobeSVGViewerExtensions/3.0/"
	 x="0px" y="0px" width="50px" height="50px" viewBox="-3.5 -3.833 50 50" enable-background="new -3.5 -3.833 50 50"
	 xml:space="preserve">
<defs>
</defs>
<path fill="#FFFFFF" d="M37.667,0H6C2.687,0,0,2.687,0,6v31.667c0,3.314,2.687,6,6,6h17.016V26.599h-3.559v-5.94h3.559v-3.567
	c0-4.846,2.009-7.728,7.718-7.728h4.753v5.941h-2.971c-2.223,0-2.369,0.83-2.369,2.38l-0.009,2.974h5.382l-0.63,5.94h-4.752v17.067
	h7.529c3.313,0,6-2.686,6-6V6C43.667,2.687,40.98,0,37.667,0z"/>
</svg>
