<?xml version="1.0" encoding="utf-8"?>
<!-- Generator: Adobe Illustrator 13.0.1, SVG Export Plug-In  -->
<!DOCTYPE svg PUBLIC "-//W3C//DTD SVG 1.1//EN" "http://www.w3.org/Graphics/SVG/1.1/DTD/svg11.dtd" [
	<!ENTITY ns_flows "http://ns.adobe.com/Flows/1.0/">
]>
<svg version="1.1"
	 xmlns="http://www.w3.org/2000/svg" xmlns:xlink="http://www.w3.org/1999/xlink" xmlns:a="http://ns.adobe.com/AdobeSVGViewerExtensions/3.0/"
	 x="0px" y="0px" width="74px" height="38px" viewBox="0 0 74 38" enable-background="new 0 0 74 38" xml:space="preserve">
<defs>
</defs>
<path fill="#444444" d="M25.776,2.78H13.104L11.336,0H1.724C0.772,0,0,0.771,0,1.724V18.75c0,0.952,0.772,1.725,1.724,1.725h24.052
	c0.952,0,1.724-0.772,1.724-1.725V4.504C27.5,3.552,26.728,2.78,25.776,2.78z M15.561,15.539h-3.707l0.392-4.749
	c-0.477-0.419-0.78-1.031-0.78-1.717c0-1.262,1.022-2.284,2.284-2.284s2.284,1.022,2.284,2.284c0,0.723-0.336,1.366-0.86,1.785
	L15.561,15.539z"/>
<path fill="#444444" d="M62.525,19.53H49.854l-1.768-2.78h-9.611c-0.953,0-1.725,0.771-1.725,1.724V35.5
	c0,0.952,0.771,1.725,1.725,1.725h24.051c0.953,0,1.725-0.772,1.725-1.725V21.254C64.25,20.302,63.479,19.53,62.525,19.53z
	 M52.311,32.289h-3.707l0.393-4.749c-0.478-0.419-0.78-1.031-0.78-1.717c0-1.262,1.022-2.284,2.284-2.284s2.284,1.022,2.284,2.284
	c0,0.723-0.337,1.366-0.86,1.785L52.311,32.289z"/>
</svg>
