<?xml version="1.0" encoding="utf-8"?>
<!-- Generator: Adobe Illustrator 13.0.1, SVG Export Plug-In  -->
<!DOCTYPE svg PUBLIC "-//W3C//DTD SVG 1.1//EN" "http://www.w3.org/Graphics/SVG/1.1/DTD/svg11.dtd" [
	<!ENTITY ns_flows "http://ns.adobe.com/Flows/1.0/">
]>
<svg version="1.1"
	 xmlns="http://www.w3.org/2000/svg" xmlns:xlink="http://www.w3.org/1999/xlink" xmlns:a="http://ns.adobe.com/AdobeSVGViewerExtensions/3.0/"
	 x="0px" y="0px" width="323px" height="282px" viewBox="0 0 323 282" enable-background="new 0 0 323 282" xml:space="preserve">
<defs>
</defs>
<path fill="#D3D3D3" d="M29.375,208.301H14.933l-2.015-3.168H1.965c-1.085,0-1.965,0.879-1.965,1.964V226.5
	c0,1.086,0.88,1.966,1.965,1.966h27.41c1.085,0,1.965-0.88,1.965-1.966v-16.234C31.34,209.18,30.46,208.301,29.375,208.301z
	 M17.733,222.841h-4.225l0.447-5.412c-0.544-0.478-0.889-1.175-0.889-1.956c0-1.438,1.166-2.604,2.604-2.604
	c1.438,0,2.603,1.166,2.603,2.604c0,0.823-0.383,1.557-0.98,2.034L17.733,222.841z"/>
<path fill="#D3D3D3" d="M71.255,227.39H56.814l-2.015-3.169H43.847c-1.086,0-1.965,0.88-1.965,1.964v19.404
	c0,1.085,0.879,1.966,1.965,1.966h27.409c1.086,0,1.965-0.881,1.965-1.966v-16.235C73.221,228.269,72.342,227.39,71.255,227.39z
	 M59.615,241.93H55.39l0.447-5.412c-0.544-0.478-0.889-1.175-0.889-1.957c0-1.438,1.166-2.603,2.604-2.603
	c1.438,0,2.603,1.165,2.603,2.603c0,0.824-0.384,1.558-0.98,2.035L59.615,241.93z"/>
<path fill="#A21521" d="M29.375,174.113H14.933l-2.015-3.169H1.965c-1.085,0-1.965,0.879-1.965,1.965v19.403
	c0,1.085,0.88,1.965,1.965,1.965h27.41c1.085,0,1.965-0.88,1.965-1.965v-16.235C31.34,174.992,30.46,174.113,29.375,174.113z
	 M17.733,188.653h-4.225l0.447-5.412c-0.544-0.478-0.889-1.176-0.889-1.956c0-1.438,1.166-2.604,2.604-2.604
	c1.438,0,2.603,1.165,2.603,2.604c0,0.823-0.383,1.556-0.98,2.033L17.733,188.653z"/>
<path fill="#A21521" d="M71.255,193.202H56.814l-2.015-3.168H43.847c-1.086,0-1.965,0.879-1.965,1.963v19.404
	c0,1.085,0.879,1.965,1.965,1.965h27.409c1.086,0,1.965-0.88,1.965-1.965v-16.235C73.221,194.081,72.342,193.202,71.255,193.202z
	 M59.615,207.742H55.39l0.447-5.412c-0.544-0.478-0.889-1.175-0.889-1.957c0-1.438,1.166-2.603,2.604-2.603
	c1.438,0,2.603,1.165,2.603,2.603c0,0.824-0.384,1.558-0.98,2.035L59.615,207.742z"/>
<path fill="#D3D3D3" d="M29.375,139.924H14.933l-2.015-3.168H1.965C0.88,136.755,0,137.634,0,138.72v19.404
	c0,1.085,0.88,1.965,1.965,1.965h27.41c1.085,0,1.965-0.88,1.965-1.965v-16.235C31.34,140.803,30.46,139.924,29.375,139.924z
	 M17.733,154.463h-4.225l0.447-5.411c-0.544-0.478-0.889-1.176-0.889-1.957c0-1.438,1.166-2.603,2.604-2.603
	c1.438,0,2.603,1.165,2.603,2.603c0,0.823-0.383,1.558-0.98,2.035L17.733,154.463z"/>
<path fill="#D3D3D3" d="M71.255,159.012H56.814l-2.015-3.168H43.847c-1.086,0-1.965,0.879-1.965,1.964v19.404
	c0,1.084,0.879,1.965,1.965,1.965h27.409c1.086,0,1.965-0.881,1.965-1.965v-16.235C73.221,159.892,72.342,159.012,71.255,159.012z
	 M59.615,173.553H55.39l0.447-5.412c-0.544-0.479-0.889-1.176-0.889-1.957c0-1.438,1.166-2.604,2.604-2.604
	c1.438,0,2.603,1.165,2.603,2.604c0,0.824-0.384,1.557-0.98,2.034L59.615,173.553z"/>
<path fill="#A21521" d="M29.375,105.735H14.933l-2.015-3.168H1.965c-1.085,0-1.965,0.879-1.965,1.964v19.404
	c0,1.085,0.88,1.965,1.965,1.965h27.41c1.085,0,1.965-0.88,1.965-1.965v-16.235C31.34,106.614,30.46,105.735,29.375,105.735z
	 M17.733,120.275h-4.225l0.447-5.412c-0.544-0.478-0.889-1.175-0.889-1.957c0-1.438,1.166-2.604,2.604-2.604
	c1.438,0,2.603,1.166,2.603,2.604c0,0.823-0.383,1.557-0.98,2.034L17.733,120.275z"/>
<path fill="#A21521" d="M71.255,124.824H56.814l-2.015-3.168H43.847c-1.086,0-1.965,0.879-1.965,1.964v19.404
	c0,1.084,0.879,1.965,1.965,1.965h27.409c1.086,0,1.965-0.881,1.965-1.965v-16.235C73.221,125.703,72.342,124.824,71.255,124.824z
	 M59.615,139.364H55.39l0.447-5.413c-0.544-0.478-0.889-1.175-0.889-1.957c0-1.438,1.166-2.603,2.604-2.603
	c1.438,0,2.603,1.166,2.603,2.603c0,0.824-0.384,1.557-0.98,2.035L59.615,139.364z"/>
<path fill="#1E386D" d="M29.375,71.546H14.933l-2.015-3.168H1.965C0.88,68.378,0,69.257,0,70.342v19.404
	c0,1.085,0.88,1.965,1.965,1.965h27.41c1.085,0,1.965-0.88,1.965-1.965V73.511C31.34,72.425,30.46,71.546,29.375,71.546z
	 M17.733,86.086h-4.225l0.447-5.412c-0.544-0.478-0.889-1.175-0.889-1.957c0-1.438,1.166-2.603,2.604-2.603
	c1.438,0,2.603,1.166,2.603,2.603c0,0.824-0.383,1.557-0.98,2.035L17.733,86.086z"/>
<path fill="#1E386D" d="M71.255,90.635H56.814L54.8,87.466H43.847c-1.086,0-1.965,0.879-1.965,1.964v19.404
	c0,1.085,0.879,1.965,1.965,1.965h27.409c1.086,0,1.965-0.88,1.965-1.965V92.599C73.221,91.514,72.342,90.635,71.255,90.635z
	 M59.615,105.175H55.39l0.447-5.412c-0.544-0.478-0.889-1.175-0.889-1.957c0-1.438,1.166-2.604,2.604-2.604
	c1.438,0,2.603,1.166,2.603,2.604c0,0.823-0.384,1.557-0.98,2.034L59.615,105.175z"/>
<path fill="#1E386D" d="M29.375,37.357H14.933l-2.015-3.168H1.965C0.88,34.189,0,35.068,0,36.153v19.404
	c0,1.085,0.88,1.965,1.965,1.965h27.41c1.085,0,1.965-0.88,1.965-1.965V39.322C31.34,38.237,30.46,37.357,29.375,37.357z
	 M17.733,51.898h-4.225l0.447-5.412c-0.544-0.478-0.889-1.176-0.889-1.957c0-1.438,1.166-2.604,2.604-2.604
	c1.438,0,2.603,1.166,2.603,2.604c0,0.823-0.383,1.557-0.98,2.034L17.733,51.898z"/>
<path fill="#1E386D" d="M71.255,56.446H56.814L54.8,53.278H43.847c-1.086,0-1.965,0.879-1.965,1.964v19.403
	c0,1.085,0.879,1.965,1.965,1.965h27.409c1.086,0,1.965-0.88,1.965-1.965V58.411C73.221,57.325,72.342,56.446,71.255,56.446z
	 M59.615,70.986H55.39l0.447-5.412c-0.544-0.477-0.889-1.175-0.889-1.957c0-1.438,1.166-2.603,2.604-2.603
	c1.438,0,2.603,1.165,2.603,2.603c0,0.823-0.384,1.557-0.98,2.035L59.615,70.986z"/>
<path fill="#1E386D" d="M29.375,3.168H14.933L12.918,0H1.965C0.88,0,0,0.879,0,1.964v19.404c0,1.085,0.88,1.965,1.965,1.965h27.41
	c1.085,0,1.965-0.88,1.965-1.965V5.133C31.34,4.048,30.46,3.168,29.375,3.168z M17.733,17.709h-4.225l0.447-5.412
	c-0.544-0.478-0.889-1.175-0.889-1.957c0-1.438,1.166-2.603,2.604-2.603c1.438,0,2.603,1.165,2.603,2.603
	c0,0.823-0.383,1.557-0.98,2.035L17.733,17.709z"/>
<path fill="#1E386D" d="M71.255,22.257H56.814L54.8,19.089H43.847c-1.086,0-1.965,0.879-1.965,1.964v19.404
	c0,1.085,0.879,1.965,1.965,1.965h27.409c1.086,0,1.965-0.88,1.965-1.965V24.222C73.221,23.137,72.342,22.257,71.255,22.257z
	 M59.615,36.798H55.39l0.447-5.413c-0.544-0.477-0.889-1.175-0.889-1.956c0-1.438,1.166-2.603,2.604-2.603
	c1.438,0,2.603,1.165,2.603,2.603c0,0.824-0.384,1.557-0.98,2.034L59.615,36.798z"/>
<path fill="#A21521" d="M112.566,208.301H98.125l-2.014-3.168H85.158c-1.086,0-1.966,0.879-1.966,1.964V226.5
	c0,1.086,0.879,1.966,1.966,1.966h27.408c1.086,0,1.966-0.88,1.966-1.966v-16.234C114.533,209.18,113.653,208.301,112.566,208.301z
	 M100.926,222.841h-4.225l0.447-5.412c-0.544-0.478-0.889-1.175-0.889-1.956c0-1.438,1.165-2.604,2.603-2.604
	s2.604,1.166,2.604,2.604c0,0.823-0.384,1.557-0.981,2.034L100.926,222.841z"/>
<path fill="#A21521" d="M154.448,227.39h-14.441l-2.015-3.169H127.04c-1.086,0-1.965,0.88-1.965,1.964v19.404
	c0,1.085,0.879,1.966,1.965,1.966h27.409c1.086,0,1.966-0.881,1.966-1.966v-16.235C156.414,228.269,155.534,227.39,154.448,227.39z
	 M142.807,241.93h-4.224l0.446-5.412c-0.544-0.478-0.889-1.175-0.889-1.957c0-1.438,1.165-2.603,2.603-2.603
	c1.438,0,2.604,1.165,2.604,2.603c0,0.824-0.384,1.558-0.98,2.035L142.807,241.93z"/>
<path fill="#D3D3D3" d="M112.566,174.113H98.125l-2.014-3.169H85.158c-1.086,0-1.966,0.879-1.966,1.965v19.403
	c0,1.085,0.879,1.965,1.966,1.965h27.408c1.086,0,1.966-0.88,1.966-1.965v-16.235C114.533,174.992,113.653,174.113,112.566,174.113z
	 M100.926,188.653h-4.225l0.447-5.412c-0.544-0.478-0.889-1.176-0.889-1.956c0-1.438,1.165-2.604,2.603-2.604
	s2.604,1.165,2.604,2.604c0,0.823-0.384,1.556-0.981,2.033L100.926,188.653z"/>
<path fill="#D3D3D3" d="M154.448,193.202h-14.441l-2.015-3.168H127.04c-1.086,0-1.965,0.879-1.965,1.963v19.404
	c0,1.085,0.879,1.965,1.965,1.965h27.409c1.086,0,1.966-0.88,1.966-1.965v-16.235C156.414,194.081,155.534,193.202,154.448,193.202z
	 M142.807,207.742h-4.224l0.446-5.412c-0.544-0.478-0.889-1.175-0.889-1.957c0-1.438,1.165-2.603,2.603-2.603
	c1.438,0,2.604,1.165,2.604,2.603c0,0.824-0.384,1.558-0.98,2.035L142.807,207.742z"/>
<path fill="#A21521" d="M112.566,139.924H98.125l-2.014-3.168H85.158c-1.086,0-1.966,0.879-1.966,1.964v19.404
	c0,1.085,0.879,1.965,1.966,1.965h27.408c1.086,0,1.966-0.88,1.966-1.965v-16.235C114.533,140.803,113.653,139.924,112.566,139.924z
	 M100.926,154.463h-4.225l0.447-5.411c-0.544-0.478-0.889-1.176-0.889-1.957c0-1.438,1.165-2.603,2.603-2.603
	s2.604,1.165,2.604,2.603c0,0.823-0.384,1.558-0.981,2.035L100.926,154.463z"/>
<path fill="#A21521" d="M154.448,159.012h-14.441l-2.015-3.168H127.04c-1.086,0-1.965,0.879-1.965,1.964v19.404
	c0,1.084,0.879,1.965,1.965,1.965h27.409c1.086,0,1.966-0.881,1.966-1.965v-16.235C156.414,159.892,155.534,159.012,154.448,159.012
	z M142.807,173.553h-4.224l0.446-5.412c-0.544-0.479-0.889-1.176-0.889-1.957c0-1.438,1.165-2.604,2.603-2.604
	c1.438,0,2.604,1.165,2.604,2.604c0,0.824-0.384,1.557-0.98,2.034L142.807,173.553z"/>
<path fill="#D3D3D3" d="M112.566,105.735H98.125l-2.014-3.168H85.158c-1.086,0-1.966,0.879-1.966,1.964v19.404
	c0,1.085,0.879,1.965,1.966,1.965h27.408c1.086,0,1.966-0.88,1.966-1.965v-16.235C114.533,106.614,113.653,105.735,112.566,105.735z
	 M100.926,120.275h-4.225l0.447-5.412c-0.544-0.478-0.889-1.175-0.889-1.957c0-1.438,1.165-2.604,2.603-2.604
	s2.604,1.166,2.604,2.604c0,0.823-0.384,1.557-0.981,2.034L100.926,120.275z"/>
<path fill="#D3D3D3" d="M154.448,124.824h-14.441l-2.015-3.168H127.04c-1.086,0-1.965,0.879-1.965,1.964v19.404
	c0,1.084,0.879,1.965,1.965,1.965h27.409c1.086,0,1.966-0.881,1.966-1.965v-16.235C156.414,125.703,155.534,124.824,154.448,124.824
	z M142.807,139.364h-4.224l0.446-5.413c-0.544-0.478-0.889-1.175-0.889-1.957c0-1.438,1.165-2.603,2.603-2.603
	c1.438,0,2.604,1.166,2.604,2.603c0,0.824-0.384,1.557-0.98,2.035L142.807,139.364z"/>
<path fill="#1E386D" d="M112.566,71.546H98.125l-2.014-3.168H85.158c-1.086,0-1.966,0.879-1.966,1.964v19.404
	c0,1.085,0.879,1.965,1.966,1.965h27.408c1.086,0,1.966-0.88,1.966-1.965V73.511C114.533,72.425,113.653,71.546,112.566,71.546z
	 M100.926,86.086h-4.225l0.447-5.412c-0.544-0.478-0.889-1.175-0.889-1.957c0-1.438,1.165-2.603,2.603-2.603
	s2.604,1.166,2.604,2.603c0,0.824-0.384,1.557-0.981,2.035L100.926,86.086z"/>
<path fill="#1E386D" d="M154.448,90.635h-14.441l-2.015-3.168H127.04c-1.086,0-1.965,0.879-1.965,1.964v19.404
	c0,1.085,0.879,1.965,1.965,1.965h27.409c1.086,0,1.966-0.88,1.966-1.965V92.599C156.414,91.514,155.534,90.635,154.448,90.635z
	 M142.807,105.175h-4.224l0.446-5.412c-0.544-0.478-0.889-1.175-0.889-1.957c0-1.438,1.165-2.604,2.603-2.604
	c1.438,0,2.604,1.166,2.604,2.604c0,0.823-0.384,1.557-0.98,2.034L142.807,105.175z"/>
<path fill="#1E386D" d="M112.566,37.357H98.125l-2.014-3.168H85.158c-1.086,0-1.966,0.879-1.966,1.964v19.404
	c0,1.085,0.879,1.965,1.966,1.965h27.408c1.086,0,1.966-0.88,1.966-1.965V39.322C114.533,38.237,113.653,37.357,112.566,37.357z
	 M100.926,51.898h-4.225l0.447-5.412c-0.544-0.478-0.889-1.176-0.889-1.957c0-1.438,1.165-2.604,2.603-2.604
	s2.604,1.166,2.604,2.604c0,0.823-0.384,1.557-0.981,2.034L100.926,51.898z"/>
<path fill="#1E386D" d="M154.448,56.446h-14.441l-2.015-3.168H127.04c-1.086,0-1.965,0.879-1.965,1.964v19.403
	c0,1.085,0.879,1.965,1.965,1.965h27.409c1.086,0,1.966-0.88,1.966-1.965V58.411C156.414,57.325,155.534,56.446,154.448,56.446z
	 M142.807,70.986h-4.224l0.446-5.412c-0.544-0.477-0.889-1.175-0.889-1.957c0-1.438,1.165-2.603,2.603-2.603
	c1.438,0,2.604,1.165,2.604,2.603c0,0.823-0.384,1.557-0.98,2.035L142.807,70.986z"/>
<path fill="#1E386D" d="M112.566,3.168H98.125L96.111,0H85.158c-1.086,0-1.966,0.879-1.966,1.964v19.404
	c0,1.085,0.879,1.965,1.966,1.965h27.408c1.086,0,1.966-0.88,1.966-1.965V5.133C114.533,4.048,113.653,3.168,112.566,3.168z
	 M100.926,17.709h-4.225l0.447-5.412c-0.544-0.478-0.889-1.175-0.889-1.957c0-1.438,1.165-2.603,2.603-2.603
	s2.604,1.165,2.604,2.603c0,0.823-0.384,1.557-0.981,2.035L100.926,17.709z"/>
<path fill="#1E386D" d="M154.448,22.257h-14.441l-2.015-3.168H127.04c-1.086,0-1.965,0.879-1.965,1.964v19.404
	c0,1.085,0.879,1.965,1.965,1.965h27.409c1.086,0,1.966-0.88,1.966-1.965V24.222C156.414,23.137,155.534,22.257,154.448,22.257z
	 M142.807,36.798h-4.224l0.446-5.413c-0.544-0.477-0.889-1.175-0.889-1.956c0-1.438,1.165-2.603,2.603-2.603
	c1.438,0,2.604,1.165,2.604,2.603c0,0.824-0.384,1.557-0.98,2.034L142.807,36.798z"/>
<path fill="#D3D3D3" d="M195.76,208.301h-14.441l-2.015-3.168h-10.953c-1.086,0-1.966,0.879-1.966,1.964V226.5
	c0,1.086,0.88,1.966,1.966,1.966h27.409c1.086,0,1.965-0.88,1.965-1.966v-16.234C197.725,209.18,196.846,208.301,195.76,208.301z
	 M184.118,222.841h-4.225l0.447-5.412c-0.544-0.478-0.89-1.175-0.89-1.956c0-1.438,1.166-2.604,2.604-2.604
	c1.438,0,2.603,1.166,2.603,2.604c0,0.823-0.384,1.557-0.98,2.034L184.118,222.841z"/>
<path fill="#D3D3D3" d="M237.641,227.39h-14.441l-2.014-3.169h-10.954c-1.086,0-1.965,0.88-1.965,1.964v19.404
	c0,1.085,0.879,1.966,1.965,1.966h27.409c1.086,0,1.965-0.881,1.965-1.966v-16.235C239.605,228.269,238.727,227.39,237.641,227.39z
	 M226,241.93h-4.226l0.448-5.412c-0.545-0.478-0.89-1.175-0.89-1.957c0-1.438,1.166-2.603,2.604-2.603s2.603,1.165,2.603,2.603
	c0,0.824-0.384,1.558-0.979,2.035L226,241.93z"/>
<path fill="#A21521" d="M195.76,174.113h-14.441l-2.015-3.169h-10.953c-1.086,0-1.966,0.879-1.966,1.965v19.403
	c0,1.085,0.88,1.965,1.966,1.965h27.409c1.086,0,1.965-0.88,1.965-1.965v-16.235C197.725,174.992,196.846,174.113,195.76,174.113z
	 M184.118,188.653h-4.225l0.447-5.412c-0.544-0.478-0.89-1.176-0.89-1.956c0-1.438,1.166-2.604,2.604-2.604
	c1.438,0,2.603,1.165,2.603,2.604c0,0.823-0.384,1.556-0.98,2.033L184.118,188.653z"/>
<path fill="#A21521" d="M237.641,193.202h-14.441l-2.014-3.168h-10.954c-1.086,0-1.965,0.879-1.965,1.963v19.404
	c0,1.085,0.879,1.965,1.965,1.965h27.409c1.086,0,1.965-0.88,1.965-1.965v-16.235C239.605,194.081,238.727,193.202,237.641,193.202z
	 M226,207.742h-4.226l0.448-5.412c-0.545-0.478-0.89-1.175-0.89-1.957c0-1.438,1.166-2.603,2.604-2.603s2.603,1.165,2.603,2.603
	c0,0.824-0.384,1.558-0.979,2.035L226,207.742z"/>
<path fill="#D3D3D3" d="M195.76,139.924h-14.441l-2.015-3.168h-10.953c-1.086,0-1.966,0.879-1.966,1.964v19.404
	c0,1.085,0.88,1.965,1.966,1.965h27.409c1.086,0,1.965-0.88,1.965-1.965v-16.235C197.725,140.803,196.846,139.924,195.76,139.924z
	 M184.118,154.463h-4.225l0.447-5.411c-0.544-0.478-0.89-1.176-0.89-1.957c0-1.438,1.166-2.603,2.604-2.603
	c1.438,0,2.603,1.165,2.603,2.603c0,0.823-0.384,1.558-0.98,2.035L184.118,154.463z"/>
<path fill="#D3D3D3" d="M237.641,159.012h-14.441l-2.014-3.168h-10.954c-1.086,0-1.965,0.879-1.965,1.964v19.404
	c0,1.084,0.879,1.965,1.965,1.965h27.409c1.086,0,1.965-0.881,1.965-1.965v-16.235C239.605,159.892,238.727,159.012,237.641,159.012
	z M226,173.553h-4.226l0.448-5.412c-0.545-0.479-0.89-1.176-0.89-1.957c0-1.438,1.166-2.604,2.604-2.604s2.603,1.165,2.603,2.604
	c0,0.824-0.384,1.557-0.979,2.034L226,173.553z"/>
<path fill="#A21521" d="M195.76,105.735h-14.441l-2.015-3.168h-10.953c-1.086,0-1.966,0.879-1.966,1.964v19.404
	c0,1.085,0.88,1.965,1.966,1.965h27.409c1.086,0,1.965-0.88,1.965-1.965v-16.235C197.725,106.614,196.846,105.735,195.76,105.735z
	 M184.118,120.275h-4.225l0.447-5.412c-0.544-0.478-0.89-1.175-0.89-1.957c0-1.438,1.166-2.604,2.604-2.604
	c1.438,0,2.603,1.166,2.603,2.604c0,0.823-0.384,1.557-0.98,2.034L184.118,120.275z"/>
<path fill="#A21521" d="M237.641,124.824h-14.441l-2.014-3.168h-10.954c-1.086,0-1.965,0.879-1.965,1.964v19.404
	c0,1.084,0.879,1.965,1.965,1.965h27.409c1.086,0,1.965-0.881,1.965-1.965v-16.235C239.605,125.703,238.727,124.824,237.641,124.824
	z M226,139.364h-4.226l0.448-5.413c-0.545-0.478-0.89-1.175-0.89-1.957c0-1.438,1.166-2.603,2.604-2.603s2.603,1.166,2.603,2.603
	c0,0.824-0.384,1.557-0.979,2.035L226,139.364z"/>
<path fill="#D3D3D3" d="M195.76,71.546h-14.441l-2.015-3.168h-10.953c-1.086,0-1.966,0.879-1.966,1.964v19.404
	c0,1.085,0.88,1.965,1.966,1.965h27.409c1.086,0,1.965-0.88,1.965-1.965V73.511C197.725,72.425,196.846,71.546,195.76,71.546z
	 M184.118,86.086h-4.225l0.447-5.412c-0.544-0.478-0.89-1.175-0.89-1.957c0-1.438,1.166-2.603,2.604-2.603
	c1.438,0,2.603,1.166,2.603,2.603c0,0.824-0.384,1.557-0.98,2.035L184.118,86.086z"/>
<path fill="#D3D3D3" d="M237.641,90.635h-14.441l-2.014-3.168h-10.954c-1.086,0-1.965,0.879-1.965,1.964v19.404
	c0,1.085,0.879,1.965,1.965,1.965h27.409c1.086,0,1.965-0.88,1.965-1.965V92.599C239.605,91.514,238.727,90.635,237.641,90.635z
	 M226,105.175h-4.226l0.448-5.412c-0.545-0.478-0.89-1.175-0.89-1.957c0-1.438,1.166-2.604,2.604-2.604s2.603,1.166,2.603,2.604
	c0,0.823-0.384,1.557-0.979,2.034L226,105.175z"/>
<path fill="#A21521" d="M195.76,37.357h-14.441l-2.015-3.168h-10.953c-1.086,0-1.966,0.879-1.966,1.964v19.404
	c0,1.085,0.88,1.965,1.966,1.965h27.409c1.086,0,1.965-0.88,1.965-1.965V39.322C197.725,38.237,196.846,37.357,195.76,37.357z
	 M184.118,51.898h-4.225l0.447-5.412c-0.544-0.478-0.89-1.176-0.89-1.957c0-1.438,1.166-2.604,2.604-2.604
	c1.438,0,2.603,1.166,2.603,2.604c0,0.823-0.384,1.557-0.98,2.034L184.118,51.898z"/>
<path fill="#A21521" d="M237.641,56.446h-14.441l-2.014-3.168h-10.954c-1.086,0-1.965,0.879-1.965,1.964v19.403
	c0,1.085,0.879,1.965,1.965,1.965h27.409c1.086,0,1.965-0.88,1.965-1.965V58.411C239.605,57.325,238.727,56.446,237.641,56.446z
	 M226,70.986h-4.226l0.448-5.412c-0.545-0.477-0.89-1.175-0.89-1.957c0-1.438,1.166-2.603,2.604-2.603s2.603,1.165,2.603,2.603
	c0,0.823-0.384,1.557-0.979,2.035L226,70.986z"/>
<path fill="#D3D3D3" d="M278.952,208.301h-14.441l-2.014-3.168h-10.954c-1.086,0-1.965,0.879-1.965,1.964V226.5
	c0,1.086,0.879,1.966,1.965,1.966h27.409c1.087,0,1.966-0.88,1.966-1.966v-16.234C280.918,209.18,280.039,208.301,278.952,208.301z
	 M267.312,222.841h-4.226l0.448-5.412c-0.545-0.478-0.89-1.175-0.89-1.956c0-1.438,1.165-2.604,2.603-2.604
	c1.438,0,2.604,1.166,2.604,2.604c0,0.823-0.384,1.557-0.98,2.034L267.312,222.841z"/>
<path fill="#D3D3D3" d="M320.834,227.39h-14.441l-2.015-3.169h-10.953c-1.087,0-1.966,0.88-1.966,1.964v19.404
	c0,1.085,0.879,1.966,1.966,1.966h27.409c1.086,0,1.965-0.881,1.965-1.966v-16.235C322.799,228.269,321.92,227.39,320.834,227.39z
	 M309.192,241.93h-4.225l0.447-5.412c-0.544-0.478-0.89-1.175-0.89-1.957c0-1.438,1.165-2.603,2.604-2.603
	c1.438,0,2.604,1.165,2.604,2.603c0,0.824-0.384,1.558-0.981,2.035L309.192,241.93z"/>
<path fill="#A21521" d="M195.76,242.49h-14.441l-2.015-3.168h-10.953c-1.086,0-1.966,0.879-1.966,1.964v19.403
	c0,1.086,0.88,1.966,1.966,1.966h27.409c1.086,0,1.965-0.88,1.965-1.966v-16.234C197.725,243.369,196.846,242.49,195.76,242.49z
	 M184.118,257.03h-4.225l0.447-5.412c-0.544-0.478-0.89-1.175-0.89-1.956c0-1.438,1.166-2.604,2.604-2.604
	c1.438,0,2.603,1.166,2.603,2.604c0,0.823-0.384,1.557-0.98,2.034L184.118,257.03z"/>
<path fill="#A21521" d="M237.641,261.58h-14.441l-2.014-3.17h-10.954c-1.086,0-1.965,0.88-1.965,1.965v19.404
	c0,1.084,0.879,1.965,1.965,1.965h27.409c1.086,0,1.965-0.881,1.965-1.965v-16.236C239.605,262.458,238.727,261.58,237.641,261.58z
	 M226,276.12h-4.226l0.448-5.413c-0.545-0.478-0.89-1.175-0.89-1.956c0-1.438,1.166-2.604,2.604-2.604s2.603,1.165,2.603,2.604
	c0,0.824-0.384,1.557-0.979,2.034L226,276.12z"/>
<path fill="#A21521" d="M278.952,242.49h-14.441l-2.014-3.168h-10.954c-1.086,0-1.965,0.879-1.965,1.964v19.403
	c0,1.086,0.879,1.966,1.965,1.966h27.409c1.087,0,1.966-0.88,1.966-1.966v-16.234C280.918,243.369,280.039,242.49,278.952,242.49z
	 M267.312,257.03h-4.226l0.448-5.412c-0.545-0.478-0.89-1.175-0.89-1.956c0-1.438,1.165-2.604,2.603-2.604
	c1.438,0,2.604,1.166,2.604,2.604c0,0.823-0.384,1.557-0.98,2.034L267.312,257.03z"/>
<path fill="#A21521" d="M320.834,261.58h-14.441l-2.015-3.17h-10.953c-1.087,0-1.966,0.88-1.966,1.965v19.404
	c0,1.084,0.879,1.965,1.966,1.965h27.409c1.086,0,1.965-0.881,1.965-1.965v-16.236C322.799,262.458,321.92,261.58,320.834,261.58z
	 M309.192,276.12h-4.225l0.447-5.413c-0.544-0.478-0.89-1.175-0.89-1.956c0-1.438,1.165-2.604,2.604-2.604
	c1.438,0,2.604,1.165,2.604,2.604c0,0.824-0.384,1.557-0.981,2.034L309.192,276.12z"/>
<path fill="#A21521" d="M278.952,174.113h-14.441l-2.014-3.169h-10.954c-1.086,0-1.965,0.879-1.965,1.965v19.403
	c0,1.085,0.879,1.965,1.965,1.965h27.409c1.087,0,1.966-0.88,1.966-1.965v-16.235C280.918,174.992,280.039,174.113,278.952,174.113z
	 M267.312,188.653h-4.226l0.448-5.412c-0.545-0.478-0.89-1.176-0.89-1.956c0-1.438,1.165-2.604,2.603-2.604
	c1.438,0,2.604,1.165,2.604,2.604c0,0.823-0.384,1.556-0.98,2.033L267.312,188.653z"/>
<path fill="#A21521" d="M320.834,193.202h-14.441l-2.015-3.168h-10.953c-1.087,0-1.966,0.879-1.966,1.963v19.404
	c0,1.085,0.879,1.965,1.966,1.965h27.409c1.086,0,1.965-0.88,1.965-1.965v-16.235C322.799,194.081,321.92,193.202,320.834,193.202z
	 M309.192,207.742h-4.225l0.447-5.412c-0.544-0.478-0.89-1.175-0.89-1.957c0-1.438,1.165-2.603,2.604-2.603
	c1.438,0,2.604,1.165,2.604,2.603c0,0.824-0.384,1.558-0.981,2.035L309.192,207.742z"/>
<path fill="#D3D3D3" d="M278.952,139.924h-14.441l-2.014-3.168h-10.954c-1.086,0-1.965,0.879-1.965,1.964v19.404
	c0,1.085,0.879,1.965,1.965,1.965h27.409c1.087,0,1.966-0.88,1.966-1.965v-16.235C280.918,140.803,280.039,139.924,278.952,139.924z
	 M267.312,154.463h-4.226l0.448-5.411c-0.545-0.478-0.89-1.176-0.89-1.957c0-1.438,1.165-2.603,2.603-2.603
	c1.438,0,2.604,1.165,2.604,2.603c0,0.823-0.384,1.558-0.98,2.035L267.312,154.463z"/>
<path fill="#D3D3D3" d="M320.834,159.012h-14.441l-2.015-3.168h-10.953c-1.087,0-1.966,0.879-1.966,1.964v19.404
	c0,1.084,0.879,1.965,1.966,1.965h27.409c1.086,0,1.965-0.881,1.965-1.965v-16.235C322.799,159.892,321.92,159.012,320.834,159.012z
	 M309.192,173.553h-4.225l0.447-5.412c-0.544-0.479-0.89-1.176-0.89-1.957c0-1.438,1.165-2.604,2.604-2.604
	c1.438,0,2.604,1.165,2.604,2.604c0,0.824-0.384,1.557-0.981,2.034L309.192,173.553z"/>
<path fill="#A21521" d="M278.952,105.735h-14.441l-2.014-3.168h-10.954c-1.086,0-1.965,0.879-1.965,1.964v19.404
	c0,1.085,0.879,1.965,1.965,1.965h27.409c1.087,0,1.966-0.88,1.966-1.965v-16.235C280.918,106.614,280.039,105.735,278.952,105.735z
	 M267.312,120.275h-4.226l0.448-5.412c-0.545-0.478-0.89-1.175-0.89-1.957c0-1.438,1.165-2.604,2.603-2.604
	c1.438,0,2.604,1.166,2.604,2.604c0,0.823-0.384,1.557-0.98,2.034L267.312,120.275z"/>
<path fill="#A21521" d="M320.834,124.824h-14.441l-2.015-3.168h-10.953c-1.087,0-1.966,0.879-1.966,1.964v19.404
	c0,1.084,0.879,1.965,1.966,1.965h27.409c1.086,0,1.965-0.881,1.965-1.965v-16.235C322.799,125.703,321.92,124.824,320.834,124.824z
	 M309.192,139.364h-4.225l0.447-5.413c-0.544-0.478-0.89-1.175-0.89-1.957c0-1.438,1.165-2.603,2.604-2.603
	c1.438,0,2.604,1.166,2.604,2.603c0,0.824-0.384,1.557-0.981,2.035L309.192,139.364z"/>
<path fill="#D3D3D3" d="M278.952,71.546h-14.441l-2.014-3.168h-10.954c-1.086,0-1.965,0.879-1.965,1.964v19.404
	c0,1.085,0.879,1.965,1.965,1.965h27.409c1.087,0,1.966-0.88,1.966-1.965V73.511C280.918,72.425,280.039,71.546,278.952,71.546z
	 M267.312,86.086h-4.226l0.448-5.412c-0.545-0.478-0.89-1.175-0.89-1.957c0-1.438,1.165-2.603,2.603-2.603
	c1.438,0,2.604,1.166,2.604,2.603c0,0.824-0.384,1.557-0.98,2.035L267.312,86.086z"/>
<path fill="#D3D3D3" d="M320.834,90.635h-14.441l-2.015-3.168h-10.953c-1.087,0-1.966,0.879-1.966,1.964v19.404
	c0,1.085,0.879,1.965,1.966,1.965h27.409c1.086,0,1.965-0.88,1.965-1.965V92.599C322.799,91.514,321.92,90.635,320.834,90.635z
	 M309.192,105.175h-4.225l0.447-5.412c-0.544-0.478-0.89-1.175-0.89-1.957c0-1.438,1.165-2.604,2.604-2.604
	c1.438,0,2.604,1.166,2.604,2.604c0,0.823-0.384,1.557-0.981,2.034L309.192,105.175z"/>
<path fill="#A21521" d="M278.952,37.357h-14.441l-2.014-3.168h-10.954c-1.086,0-1.965,0.879-1.965,1.964v19.404
	c0,1.085,0.879,1.965,1.965,1.965h27.409c1.087,0,1.966-0.88,1.966-1.965V39.322C280.918,38.237,280.039,37.357,278.952,37.357z
	 M267.312,51.898h-4.226l0.448-5.412c-0.545-0.478-0.89-1.176-0.89-1.957c0-1.438,1.165-2.604,2.603-2.604
	c1.438,0,2.604,1.166,2.604,2.604c0,0.823-0.384,1.557-0.98,2.034L267.312,51.898z"/>
<path fill="#A21521" d="M320.834,56.446h-14.441l-2.015-3.168h-10.953c-1.087,0-1.966,0.879-1.966,1.964v19.403
	c0,1.085,0.879,1.965,1.966,1.965h27.409c1.086,0,1.965-0.88,1.965-1.965V58.411C322.799,57.325,321.92,56.446,320.834,56.446z
	 M309.192,70.986h-4.225l0.447-5.412c-0.544-0.477-0.89-1.175-0.89-1.957c0-1.438,1.165-2.603,2.604-2.603
	c1.438,0,2.604,1.165,2.604,2.603c0,0.823-0.384,1.557-0.981,2.035L309.192,70.986z"/>
</svg>
