<?xml version="1.0" encoding="utf-8"?>
<!-- Generator: Adobe Illustrator 13.0.1, SVG Export Plug-In  -->
<!DOCTYPE svg PUBLIC "-//W3C//DTD SVG 1.1//EN" "http://www.w3.org/Graphics/SVG/1.1/DTD/svg11.dtd" [
	<!ENTITY ns_flows "http://ns.adobe.com/Flows/1.0/">
]>
<svg version="1.1"
	 xmlns="http://www.w3.org/2000/svg" xmlns:xlink="http://www.w3.org/1999/xlink" xmlns:a="http://ns.adobe.com/AdobeSVGViewerExtensions/3.0/"
	 x="0px" y="0px" width="44px" height="172px" viewBox="8 -0.833 44 172" enable-background="new 8 -0.833 44 172"
	 xml:space="preserve">
<defs>
</defs>
<path fill="#212121" d="M30,75.5c2.623,0,4.75-2.126,4.75-4.75S32.623,66,30,66c-2.624,0-4.75,2.126-4.75,4.75S27.376,75.5,30,75.5z
	 M31.75,77H28c-3.313,0-6,2.687-6,6v10c0,2.22,1.208,4.153,3,5.19v17.311c0,1.104,0.896,2,2,2s2-0.896,2-2v-16.5h2v16.75
	c0,1.104,0.896,2,2,2s2-0.896,2-2V98.038c1.653-1.068,2.75-2.924,2.75-5.038V83C37.75,79.687,35.063,77,31.75,77z"/>
<path fill="#212121" d="M30,23.5c2.623,0,4.75-2.126,4.75-4.75S32.623,14,30,14c-2.624,0-4.75,2.126-4.75,4.75S27.376,23.5,30,23.5z
	 M31.75,25H28c-3.313,0-6,2.687-6,6v10c0,2.22,1.208,4.153,3,5.19v17.311c0,1.104,0.896,2,2,2s2-0.896,2-2v-16.5h2v16.75
	c0,1.104,0.896,2,2,2s2-0.896,2-2V46.038c1.653-1.068,2.75-2.924,2.75-5.038V31C37.75,27.687,35.063,25,31.75,25z"/>
<path fill="#212121" d="M30,127.5c2.623,0,4.75-2.126,4.75-4.75S32.623,118,30,118c-2.624,0-4.75,2.126-4.75,4.75
	S27.376,127.5,30,127.5z M31.75,129H28c-3.313,0-6,2.687-6,6v10c0,2.22,1.208,4.153,3,5.19v17.311c0,1.104,0.896,2,2,2s2-0.896,2-2
	v-16.5h2v16.75c0,1.104,0.896,2,2,2s2-0.896,2-2v-17.713c1.653-1.068,2.75-2.924,2.75-5.038v-10C37.75,131.687,35.063,129,31.75,129
	z"/>
<path fill="#212121" d="M52,61.5c2.623,0,4.75-2.126,4.75-4.75S54.623,52,52,52c-2.624,0-4.75,2.126-4.75,4.75S49.376,61.5,52,61.5z
	 M53.75,63H50c-3.313,0-6,2.687-6,6v10c0,2.22,1.208,4.153,3,5.19v17.311c0,1.104,0.896,2,2,2s2-0.896,2-2v-16.5h2v16.75
	c0,1.104,0.896,2,2,2s2-0.896,2-2V84.038c1.653-1.068,2.75-2.924,2.75-5.038V69C59.75,65.687,57.063,63,53.75,63z"/>
<path fill="#212121" d="M52,9.5c2.623,0,4.75-2.126,4.75-4.75S54.623,0,52,0c-2.624,0-4.75,2.126-4.75,4.75S49.376,9.5,52,9.5z
	 M53.75,11H50c-3.313,0-6,2.687-6,6v10c0,2.22,1.208,4.153,3,5.19v17.311c0,1.104,0.896,2,2,2s2-0.896,2-2v-16.5h2v16.75
	c0,1.104,0.896,2,2,2s2-0.896,2-2V32.038c1.653-1.068,2.75-2.924,2.75-5.038V17C59.75,13.687,57.063,11,53.75,11z"/>
<path fill="#212121" d="M52,113.5c2.623,0,4.75-2.126,4.75-4.75S54.623,104,52,104c-2.624,0-4.75,2.126-4.75,4.75
	S49.376,113.5,52,113.5z M53.75,115H50c-3.313,0-6,2.687-6,6v10c0,2.22,1.208,4.153,3,5.19v17.311c0,1.104,0.896,2,2,2s2-0.896,2-2
	v-16.5h2v16.75c0,1.104,0.896,2,2,2s2-0.896,2-2v-17.713c1.653-1.068,2.75-2.924,2.75-5.038v-10C59.75,117.687,57.063,115,53.75,115
	z"/>
<path fill="#212121" d="M8,61.5c2.623,0,4.75-2.126,4.75-4.75S10.623,52,8,52c-2.624,0-4.75,2.126-4.75,4.75S5.376,61.5,8,61.5z
	 M9.75,63H6c-3.313,0-6,2.687-6,6v10c0,2.22,1.208,4.153,3,5.19v17.311c0,1.104,0.896,2,2,2s2-0.896,2-2v-16.5h2v16.75
	c0,1.104,0.896,2,2,2s2-0.896,2-2V84.038c1.653-1.068,2.75-2.924,2.75-5.038V69C15.75,65.687,13.063,63,9.75,63z"/>
<path fill="#212121" d="M8,9.5c2.623,0,4.75-2.126,4.75-4.75S10.623,0,8,0C5.376,0,3.25,2.126,3.25,4.75S5.376,9.5,8,9.5z M9.75,11
	H6c-3.313,0-6,2.687-6,6v10c0,2.22,1.208,4.153,3,5.19v17.311c0,1.104,0.896,2,2,2s2-0.896,2-2v-16.5h2v16.75c0,1.104,0.896,2,2,2
	s2-0.896,2-2V32.038c1.653-1.068,2.75-2.924,2.75-5.038V17C15.75,13.687,13.063,11,9.75,11z"/>
<path fill="#212121" d="M8,113.5c2.623,0,4.75-2.126,4.75-4.75S10.623,104,8,104c-2.624,0-4.75,2.126-4.75,4.75S5.376,113.5,8,113.5
	z M9.75,115H6c-3.313,0-6,2.687-6,6v10c0,2.22,1.208,4.153,3,5.19v17.311c0,1.104,0.896,2,2,2s2-0.896,2-2v-16.5h2v16.75
	c0,1.104,0.896,2,2,2s2-0.896,2-2v-17.713c1.653-1.068,2.75-2.924,2.75-5.038v-10C15.75,117.687,13.063,115,9.75,115z"/>
</svg>
