<?xml version="1.0" encoding="utf-8"?>
<!-- Generator: Adobe Illustrator 13.0.1, SVG Export Plug-In  -->
<!DOCTYPE svg PUBLIC "-//W3C//DTD SVG 1.1//EN" "http://www.w3.org/Graphics/SVG/1.1/DTD/svg11.dtd" [
	<!ENTITY ns_flows "http://ns.adobe.com/Flows/1.0/">
]>
<svg version="1.1"
	 xmlns="http://www.w3.org/2000/svg" xmlns:xlink="http://www.w3.org/1999/xlink" xmlns:a="http://ns.adobe.com/AdobeSVGViewerExtensions/3.0/"
	 x="0px" y="0px" width="16px" height="52px" viewBox="0 0 16 52" enable-background="new 0 0 16 52" xml:space="preserve">
<defs>
</defs>
<path fill="#212121" d="M8,9.5c2.623,0,4.75-2.126,4.75-4.75S10.623,0,8,0C5.376,0,3.25,2.126,3.25,4.75S5.376,9.5,8,9.5z M9.75,11
	H6c-3.313,0-6,2.687-6,6v10c0,2.22,1.208,4.153,3,5.19v17.311c0,1.104,0.896,2,2,2s2-0.896,2-2v-16.5h2v16.75c0,1.104,0.896,2,2,2
	s2-0.896,2-2V32.038c1.653-1.068,2.75-2.924,2.75-5.038V17C15.75,13.687,13.063,11,9.75,11z"/>
</svg>
