<?xml version="1.0" encoding="utf-8"?>
<!-- Generator: Adobe Illustrator 13.0.1, SVG Export Plug-In  -->
<!DOCTYPE svg PUBLIC "-//W3C//DTD SVG 1.1//EN" "http://www.w3.org/Graphics/SVG/1.1/DTD/svg11.dtd" [
	<!ENTITY ns_flows "http://ns.adobe.com/Flows/1.0/">
]>
<svg version="1.1"
	 xmlns="http://www.w3.org/2000/svg" xmlns:xlink="http://www.w3.org/1999/xlink" xmlns:a="http://ns.adobe.com/AdobeSVGViewerExtensions/3.0/"
	 x="0px" y="0px" width="533px" height="170px" viewBox="218.86 53.489 533 170" enable-background="new 218.86 53.489 533 170"
	 xml:space="preserve">
<defs>
</defs>
<path display="none" fill-rule="evenodd" clip-rule="evenodd" fill="#365697" d="M302.321,10.921l-5.606-0.436l-0.46,5.916
	l-17.438-1.354l-2.321,29.892l17.436,1.356l-2.853,36.744l5.604,0.434l2.855-36.743l16.503,1.282l2.323-29.893l-16.504-1.282
	L302.321,10.921z M274.013,15.125L248.73,15.96l-0.194-5.931l-5.621,0.186l0.198,5.931l-26.533,0.876l0.958,29.031l26.533-0.876
	l1.248,37.771l5.617-0.186l-1.248-37.771l25.286-0.835L274.013,15.125z M190.485,2.66l-5.62-0.152l-0.147,5.933l-26.55-0.721
	l-0.228,8.394l-26.024-0.039l0.007-5.931l-5.622-0.008l-0.008,5.933l-25.299-0.034l-0.041,29.045l25.298,0.036L126.2,82.904
	l5.622,0.01l0.053-37.792l25.277,0.037l-0.406,15.009l26.668,0.727l-0.632,25.36l5.621,0.153l0.63-25.362l25.159,0.681l1.423-52.45
	l-25.275-0.686L190.485,2.66z M97.308,7.72L70.759,8.44l-0.148-5.933L64.992,2.66l0.147,5.932L39.864,9.278l0.235,8.703
	l-14.734-1.145l0.46-5.915l-5.605-0.436l-0.461,5.916L2.323,15.047L0,44.938l17.438,1.356l-2.856,36.744l5.605,0.434l2.855-36.743
	l16.504,1.282l1.013-13.058l0.727,26.774l25.16-0.681l0.629,25.362l5.622-0.153l-0.632-25.36l26.669-0.727L97.308,7.72z
	 M495.232,15.125l-25.288,0.834l-0.195-5.931l-5.62,0.186l0.196,5.931l-26.532,0.876l0.96,29.031l26.532-0.876l1.249,37.771
	l5.618-0.186l-1.247-37.771l25.285-0.835L495.232,15.125z M1028.114,15.125l-25.29,0.834l-0.188-5.931l-5.624,0.186l0.198,5.931
	l-26.533,0.876l0.96,29.031l26.535-0.876l1.245,37.771l5.616-0.186l-1.246-37.771l25.286-0.835L1028.114,15.125z M1055.958,16.836
	l0.458-5.915l-5.603-0.436l-0.463,5.916l-17.436-1.354l-2.321,29.892l17.437,1.356l-2.854,36.744l5.604,0.434l2.854-36.743
	l16.505,1.282l2.321-29.893L1055.958,16.836z M944.584,2.66l-5.621-0.152l-0.146,5.933L912.265,7.72l-0.225,8.394l-26.027-0.039
	l0.008-5.931l-5.621-0.008l-0.01,5.933l-25.297-0.034l-0.041,29.045l25.3,0.036l-0.055,37.789l5.622,0.01l0.053-37.792l25.277,0.037
	l-0.404,15.009l26.666,0.727l-0.629,25.36l5.616,0.153l0.633-25.362l25.155,0.681l1.427-52.45l-25.278-0.686L944.584,2.66z
	 M723.371,2.66l-5.621-0.152l-0.149,5.933L691.05,7.72l-0.227,8.394l-26.025-0.039l0.008-5.931l-5.62-0.008l-0.011,5.933
	l-25.296-0.034l-0.041,29.045l25.3,0.036l-0.055,37.789l5.621,0.01l0.051-37.792l25.282,0.037l-0.411,15.009l26.669,0.727
	l-0.63,25.36l5.619,0.153l0.631-25.362l25.159,0.681l1.422-52.45l-25.274-0.686L723.371,2.66z M835.203,10.921l-5.604-0.436
	l-0.461,5.916L811.7,15.047l-2.32,29.892l17.436,1.356l-2.854,36.744l5.604,0.434l2.854-36.743l16.505,1.282l2.321-29.893
	l-16.506-1.282L835.203,10.921z M806.898,15.125l-25.286,0.834l-0.194-5.931l-5.619,0.186l0.194,5.931l-26.53,0.876l0.959,29.031
	l26.532-0.876l1.25,37.771l5.616-0.186l-1.246-37.771l25.284-0.835L806.898,15.125z"/>
<polygon display="none" fill-rule="evenodd" clip-rule="evenodd" fill="#365697" points="408.124,1.809 402.558,1.015 
	401.719,6.889 384.404,4.418 380.17,34.1 397.483,36.571 392.278,73.057 397.842,73.85 403.049,37.365 419.436,39.704 
	423.672,10.021 407.285,7.683 "/>
<polyline display="none" fill-rule="evenodd" clip-rule="evenodd" fill="#365697" points="320.572,34.08 322.798,60.771 
	347.88,58.681 349.93,83.968 355.534,83.5 353.481,58.214 380.067,55.994 375.704,3.708 349.238,5.915 348.757,0 343.156,0.467 
	343.635,6.382 318.438,8.484 319.161,17.16 "/>
<polygon display="none" fill-rule="evenodd" clip-rule="evenodd" fill="#365697" points="479.113,5.515 454.185,9.845 
	453.171,3.999 447.63,4.962 448.646,10.808 422.492,15.353 427.466,43.97 453.621,39.425 460.091,76.659 465.629,75.696 
	459.161,38.462 484.085,34.13 "/>
<polygon display="none" fill-rule="evenodd" clip-rule="evenodd" fill="#365697" points="554.274,9.788 529.022,11.385 
	528.649,5.463 523.038,5.818 523.412,11.74 496.919,13.416 498.753,42.404 525.248,40.729 527.634,78.444 533.243,78.089 
	530.858,40.373 556.106,38.775 "/>
<polyline display="none" fill-rule="evenodd" clip-rule="evenodd" fill="#365697" points="590.85,29.738 586.546,56.174 
	611.388,60.219 607.254,85.25 612.805,86.152 616.936,61.123 643.268,65.406 651.695,13.619 625.481,9.352 626.448,3.497 
	620.9,2.594 619.933,8.448 594.978,4.387 593.578,12.979 "/>
<polygon display="none" fill-rule="evenodd" clip-rule="evenodd" fill="#365697" points="574.991,3.892 569.425,3.098 
	568.587,8.971 551.272,6.501 547.038,36.182 564.351,38.654 559.146,75.139 564.71,75.932 569.917,39.448 586.304,41.786 
	590.54,12.104 574.152,9.765 "/>
<path display="none" fill-rule="evenodd" clip-rule="evenodd" fill="#8CA2CF" d="M534.989,37.659l-5.982-0.465l-0.492,6.315
	l-18.611-1.446l-2.479,31.906l18.611,1.447l-3.046,39.219l5.983,0.464l3.047-39.219l17.615,1.369l2.479-31.907l-17.615-1.369
	L534.989,37.659z M415.619,28.843l-5.998-0.163l-0.158,6.332l-28.339-0.768l-0.243,8.958l-27.779-0.039l0.009-6.333l-6.001-0.008
	l-0.008,6.333l-27.003-0.038l-0.044,31.003l27.004,0.038L347,114.495l6,0.009l0.057-40.338l26.981,0.039l-0.435,16.023L408.07,91
	l-0.674,27.071l5.998,0.162l0.673-27.071l26.854,0.729l1.519-55.984l-26.979-0.732L415.619,28.843z M316.163,34.243l-28.339,0.768
	l-0.157-6.332l-5.998,0.163l0.157,6.332l-26.979,0.732l0.251,9.29l-15.728-1.223l0.491-6.314l-5.982-0.465l-0.491,6.315
	l-18.612-1.446l-2.479,31.906l18.612,1.447l-3.047,39.219l5.983,0.464l3.047-39.219l17.615,1.369l1.083-13.939l0.776,28.58
	l26.854-0.729l0.673,27.071l5.998-0.162L289.217,91l28.465-0.773L316.163,34.243z M504.777,42.147l-26.988,0.891l-0.208-6.331
	l-5.998,0.198l0.209,6.331l-28.32,0.935l1.023,30.987l28.32-0.936l1.332,40.315l5.997-0.199l-1.331-40.314l26.988-0.892
	L504.777,42.147z M770.62,43.974l0.49-6.314l-5.981-0.465l-0.492,6.315l-18.612-1.446l-2.478,31.906l18.611,1.447l-3.047,39.219
	l5.982,0.464l3.048-39.219l17.615,1.369l2.479-31.907L770.62,43.974z M651.741,28.843l-5.998-0.163l-0.158,6.332l-28.34-0.768
	l-0.243,8.958l-27.779-0.039l0.009-6.333l-6-0.008l-0.009,6.333l-27.004-0.038l-0.041,31.003l27.002,0.038l-0.057,40.336l6,0.009
	l0.058-40.338l26.979,0.039l-0.435,16.023L644.192,91l-0.674,27.071l5.998,0.162l0.674-27.071l26.854,0.729l1.519-55.984
	l-26.98-0.732L651.741,28.843z M740.899,42.147l-26.99,0.891l-0.207-6.331l-5.999,0.198l0.21,6.331l-28.32,0.935l1.023,30.987
	l28.321-0.936l1.332,40.315l5.996-0.199l-1.331-40.314l26.987-0.892L740.899,42.147z"/>
<path fill-rule="evenodd" clip-rule="evenodd" fill="#FFFFFF" d="M401.229,66.884l-51.114,1.387l-0.284-11.421l-10.818,0.293
	l0.284,11.421l-48.659,1.32l0.454,16.755l-28.367-2.205l0.885-11.39l-10.791-0.838l-0.886,11.39l-33.568-2.609l-4.472,57.548
	l33.57,2.608l-5.497,70.737l10.791,0.838l5.496-70.737l31.771,2.468l1.954-25.14l1.398,51.547l48.434-1.313l1.214,48.826
	l10.818-0.292l-1.214-48.826l51.341-1.396L401.229,66.884z M795.025,84.436l0.884-11.39l-10.79-0.838l-0.886,11.39l-33.569-2.609
	l-4.471,57.548l33.569,2.608l-5.496,70.737l10.791,0.838l5.496-70.737l31.771,2.468l4.472-57.548L795.025,84.436z M738.585,77.263
	l-49.213,6.112l-1.431-11.542l-10.937,1.359l1.433,11.542l-50.024,6.214l0.571-21.064l-48.66-1.32l0.285-11.421l-10.818-0.293
	l-0.285,11.421l-51.113-1.387l-0.033,1.204l-4.609-0.678l-1.754,11.931l-35.168-5.167l-1.294,8.809l-7.683-0.011l0.016-11.423
	l-10.824-0.016l-0.015,11.424l-48.704-0.067l-0.078,55.918l48.704,0.068l-0.102,72.753l10.822,0.017l0.102-72.755l30.634,0.043
	l4.73,0.695l-10.886,74.105l11.302,1.66l10.891-74.105l1.921,0.282l-0.713,26.287l51.342,1.396l-1.215,48.826l10.818,0.292
	l1.215-48.826l48.433,1.313l1.875-69.124l5.705,45.909l51.635-6.415l9.133,73.504l10.932-1.358l-9.129-73.506l49.207-6.114
	L738.585,77.263z"/>
</svg>
