<?xml version="1.0" encoding="utf-8"?>
<!-- Generator: Adobe Illustrator 13.0.1, SVG Export Plug-In  -->
<!DOCTYPE svg PUBLIC "-//W3C//DTD SVG 1.1//EN" "http://www.w3.org/Graphics/SVG/1.1/DTD/svg11.dtd" [
	<!ENTITY ns_flows "http://ns.adobe.com/Flows/1.0/">
]>
<svg version="1.1"
	 xmlns="http://www.w3.org/2000/svg" xmlns:xlink="http://www.w3.org/1999/xlink" xmlns:a="http://ns.adobe.com/AdobeSVGViewerExtensions/3.0/"
	 x="0px" y="0px" width="50px" height="50px" viewBox="-0.779 -1.833 50 50" enable-background="new -0.779 -1.833 50 50"
	 xml:space="preserve">
<defs>
</defs>
<path fill="#FFFFFF" d="M28.221,0C17.82,0,9.388,8.432,9.388,18.833c0,3.946,1.218,7.605,3.293,10.631L0,42.145l5.076,5.075
	l12.712-12.712c2.987,1.992,6.574,3.158,10.433,3.158c10.401,0,18.834-8.433,18.834-18.833C47.055,8.432,38.622,0,28.221,0z
	 M28.021,31.255c-6.971,0-12.622-5.651-12.622-12.623c0-6.971,5.651-12.622,12.622-12.622s12.622,5.651,12.622,12.622
	C40.643,25.604,34.991,31.255,28.021,31.255z"/>
</svg>
