<?xml version="1.0" encoding="utf-8"?>
<!-- Generator: Adobe Illustrator 13.0.1, SVG Export Plug-In  -->
<!DOCTYPE svg PUBLIC "-//W3C//DTD SVG 1.1//EN" "http://www.w3.org/Graphics/SVG/1.1/DTD/svg11.dtd" [
	<!ENTITY ns_flows "http://ns.adobe.com/Flows/1.0/">
]>
<svg version="1.1"
	 xmlns="http://www.w3.org/2000/svg" xmlns:xlink="http://www.w3.org/1999/xlink" xmlns:a="http://ns.adobe.com/AdobeSVGViewerExtensions/3.0/"
	 x="0px" y="0px" width="128px" height="28px" viewBox="0 0 128 28" enable-background="new 0 0 128 28" xml:space="preserve">
<defs>
</defs>
<path fill="#A21521" d="M72.989,28.169l-9.163-6.29l-9.149,6.31L57.83,17.53L49,10.78l11.111-0.296L63.803,0l3.715,10.476
	l11.109,0.271l-8.813,6.771L72.989,28.169z"/>
<path fill="#A21521" d="M121.989,28.169l-9.163-6.29l-9.148,6.31l3.152-10.658L98,10.78l11.11-0.296L112.803,0l3.716,10.476
	l11.109,0.271l-8.813,6.771L121.989,28.169z"/>
<path fill="#A21521" d="M23.989,28.169l-9.163-6.29l-9.148,6.31L8.83,17.53L0,10.78l11.11-0.296L14.803,0l3.716,10.476l11.109,0.271
	l-8.813,6.771L23.989,28.169z"/>
</svg>
