<?xml version="1.0" encoding="utf-8"?>
<!-- Generator: Adobe Illustrator 13.0.1, SVG Export Plug-In  -->
<!DOCTYPE svg PUBLIC "-//W3C//DTD SVG 1.1//EN" "http://www.w3.org/Graphics/SVG/1.1/DTD/svg11.dtd" [
	<!ENTITY ns_flows "http://ns.adobe.com/Flows/1.0/">
]>
<svg version="1.1"
	 xmlns="http://www.w3.org/2000/svg" xmlns:xlink="http://www.w3.org/1999/xlink" xmlns:a="http://ns.adobe.com/AdobeSVGViewerExtensions/3.0/"
	 x="0px" y="0px" width="50px" height="50px" viewBox="0 -4.872 50 50" enable-background="new 0 -4.872 50 50"
	 xml:space="preserve">
<defs>
</defs>
<path fill="#FFFFFF" d="M50,4.81c-1.84,0.816-3.816,1.368-5.892,1.615c2.117-1.27,3.744-3.28,4.51-5.675
	c-1.981,1.176-4.177,2.029-6.514,2.489C40.233,1.246,37.567,0,34.617,0c-5.665,0-10.258,4.593-10.258,10.258
	c0,0.804,0.09,1.587,0.266,2.338C16.099,12.167,8.54,8.084,3.481,1.877C2.598,3.393,2.092,5.155,2.092,7.035
	c0,3.559,1.811,6.699,4.563,8.538c-1.682-0.053-3.264-0.515-4.646-1.283c-0.001,0.043-0.001,0.086-0.001,0.129
	c0,4.97,3.536,9.116,8.229,10.058c-0.861,0.234-1.767,0.36-2.702,0.36c-0.661,0-1.304-0.064-1.93-0.184
	c1.305,4.075,5.094,7.041,9.583,7.123c-3.511,2.752-7.934,4.392-12.74,4.392c-0.828,0-1.645-0.049-2.447-0.144
	c4.54,2.911,9.932,4.609,15.725,4.609c18.868,0,29.187-15.632,29.187-29.187c0-0.444-0.01-0.887-0.03-1.327
	C46.886,8.674,48.625,6.867,50,4.81z"/>
</svg>
